<svg width="18" height="18" viewBox="0 0 18 18" fill="none" xmlns="http://www.w3.org/2000/svg">
<rect x="1" y="1" width="16" height="16" rx="8" stroke="white" stroke-width="2"/>
<path d="M9 4C8.70163 4 8.41548 4.1317 8.2045 4.36612C7.99353 4.60054 7.875 4.91848 7.875 5.25C7.875 5.58152 7.99353 5.89946 8.2045 6.13388C8.41548 6.3683 8.70163 6.5 9 6.5C9.29837 6.5 9.58452 6.3683 9.7955 6.13388C10.0065 5.89946 10.125 5.58152 10.125 5.25C10.125 4.91848 10.0065 4.60054 9.7955 4.36612C9.58452 4.1317 9.29837 4 9 4ZM7.875 7.75C7.668 7.75 7.5 7.93667 7.5 8.16667C7.5 8.39667 7.668 8.58333 7.875 8.58333H8.25V13.1667H7.875C7.668 13.1667 7.5 13.3533 7.5 13.5833C7.5 13.8133 7.668 14 7.875 14H10.125C10.332 14 10.5 13.8133 10.5 13.5833C10.5 13.3533 10.332 13.1667 10.125 13.1667H9.75V8.16667C9.75 7.93667 9.582 7.75 9.375 7.75H8.25H7.875Z" fill="white"/>
</svg>
